<svg width="49" height="48" viewBox="0 0 49 48" fill="none" xmlns="http://www.w3.org/2000/svg">
<g clip-path="url(#clip0_42_1667)">
<path d="M1.20215 23.8492C1.20215 24.8134 1.96501 25.3963 2.90958 25.3963C3.49243 25.3963 3.95443 25.1152 4.35643 24.7132L23.9636 6.85373C24.1839 6.63259 24.4256 6.55202 24.6862 6.55202C24.9279 6.55202 25.149 6.63259 25.389 6.85373L44.9764 24.7132C45.3982 25.1152 45.8602 25.3963 46.4233 25.3963C47.367 25.3963 48.1307 24.8134 48.1307 23.8492C48.1307 23.2466 47.9096 22.8652 47.5282 22.5232L40.5767 16.1957V4.32259C40.5767 3.43887 40.0144 2.87659 39.1307 2.87659H36.4993C35.6353 2.87659 35.0327 3.43887 35.0327 4.32259V11.1532L27.0767 3.8803C26.3739 3.21773 25.5099 2.89716 24.6664 2.89716C23.8221 2.89716 22.9787 3.21859 22.2553 3.88116L1.80472 22.5232C1.44301 22.8652 1.20215 23.2466 1.20215 23.8492ZM6.94758 40.704C6.94758 43.4966 8.63529 45.1243 11.4673 45.1243H19.6041V30.84C19.6041 29.916 20.2264 29.3143 21.1504 29.3143H28.2424C29.1664 29.3143 29.769 29.916 29.769 30.84V45.1243H37.8853C40.7173 45.1243 42.3853 43.4966 42.3853 40.704V25.9989L25.329 10.6303C25.1079 10.4297 24.867 10.3294 24.6262 10.3294C24.405 10.3294 24.1839 10.4297 23.943 10.6509L6.94758 26.0992V40.704Z" fill="white"/>
</g>
<defs>
<clipPath id="clip0_42_1667">
<rect width="48" height="48" fill="white" transform="translate(0.666016)"/>
</clipPath>
</defs>
</svg>
