<svg width="48" height="48" viewBox="0 0 48 48" fill="none" xmlns="http://www.w3.org/2000/svg">
<path d="M29.508 20C31.44 20 33.008 21.568 33.008 23.5V32.998C33.008 35.3855 32.0596 37.6752 30.3714 39.3634C28.6832 41.0516 26.3935 42 24.006 42C21.6185 42 19.3288 41.0516 17.6406 39.3634C15.9524 37.6752 15.004 35.3855 15.004 32.998V23.5C15.004 21.568 16.57 20 18.504 20H29.508ZM14.262 20C13.5393 20.8655 13.1057 21.9356 13.022 23.06L13.002 23.5V32.998C13.002 34.692 13.386 36.296 14.07 37.728C13.4087 37.908 12.7187 37.9987 12 38C10.9493 38 9.90881 37.793 8.93807 37.3908C7.96734 36.9887 7.08533 36.3992 6.34244 35.6561C5.59954 34.9131 5.01031 34.0309 4.60839 33.0601C4.20647 32.0892 3.99974 31.0487 4 29.998V23.5C4.00003 22.6216 4.33034 21.7754 4.92536 21.1292C5.52038 20.4831 6.3366 20.0843 7.212 20.012L7.5 20H14.262ZM33.75 20H40.5C42.432 20 44 21.568 44 23.5V30C44.0003 31.2263 43.7186 32.4363 43.1768 33.5364C42.6349 34.6366 41.8474 35.5974 40.8751 36.3447C39.9028 37.092 38.7717 37.6058 37.5692 37.8464C36.3667 38.0869 35.125 38.0478 33.94 37.732C34.54 36.476 34.908 35.092 34.99 33.628L35.008 32.998V23.5C35.008 22.17 34.538 20.95 33.75 20ZM24 6C25.5913 6 27.1174 6.63214 28.2426 7.75736C29.3679 8.88258 30 10.4087 30 12C30 13.5913 29.3679 15.1174 28.2426 16.2426C27.1174 17.3679 25.5913 18 24 18C22.4087 18 20.8826 17.3679 19.7574 16.2426C18.6321 15.1174 18 13.5913 18 12C18 10.4087 18.6321 8.88258 19.7574 7.75736C20.8826 6.63214 22.4087 6 24 6ZM37 8C38.3261 8 39.5979 8.52678 40.5355 9.46447C41.4732 10.4021 42 11.6739 42 13C42 14.3261 41.4732 15.5979 40.5355 16.5355C39.5979 17.4732 38.3261 18 37 18C35.6739 18 34.4021 17.4732 33.4645 16.5355C32.5268 15.5979 32 14.3261 32 13C32 11.6739 32.5268 10.4021 33.4645 9.46447C34.4021 8.52678 35.6739 8 37 8ZM11 8C12.3261 8 13.5979 8.52678 14.5355 9.46447C15.4732 10.4021 16 11.6739 16 13C16 14.3261 15.4732 15.5979 14.5355 16.5355C13.5979 17.4732 12.3261 18 11 18C9.67392 18 8.40215 17.4732 7.46447 16.5355C6.52678 15.5979 6 14.3261 6 13C6 11.6739 6.52678 10.4021 7.46447 9.46447C8.40215 8.52678 9.67392 8 11 8Z" fill="white"/>
</svg>
