<svg width="256" height="48" viewBox="0 0 256 48" fill="none" xmlns="http://www.w3.org/2000/svg">
<path d="M52 29.27L58.18 33L56.54 25.97L62 21.24L54.81 20.63L52 14L49.19 20.63L42 21.24L47.46 25.97L45.82 33L52 29.27Z" fill="white"/>
<path d="M84 31.905L93.27 37.5L90.81 26.955L99 19.86L88.215 18.945L84 9L79.785 18.945L69 19.86L77.19 26.955L74.73 37.5L84 31.905Z" fill="white"/>
<path d="M128 34.54L140.36 42L137.08 27.94L148 18.48L133.62 17.26L128 4L122.38 17.26L108 18.48L118.92 27.94L115.64 42L128 34.54Z" fill="white"/>
<path d="M172 31.905L181.27 37.5L178.81 26.955L187 19.86L176.215 18.945L172 9L167.785 18.945L157 19.86L165.19 26.955L162.73 37.5L172 31.905Z" fill="white"/>
<path d="M204 29.27L210.18 33L208.54 25.97L214 21.24L206.81 20.63L204 14L201.19 20.63L194 21.24L199.46 25.97L197.82 33L204 29.27Z" fill="white"/>
</svg>
