<svg width="49" height="48" viewBox="0 0 49 48" fill="none" xmlns="http://www.w3.org/2000/svg">
<path d="M24.333 46L18.333 40H10.333C9.23301 40 8.29167 39.6087 7.50901 38.826C6.72634 38.0433 6.33434 37.1013 6.33301 36V8C6.33301 6.9 6.72501 5.95867 7.50901 5.176C8.29301 4.39333 9.23434 4.00133 10.333 4H38.333C39.433 4 40.375 4.392 41.159 5.176C41.943 5.96 42.3343 6.90133 42.333 8V36C42.333 37.1 41.9417 38.042 41.159 38.826C40.3763 39.61 39.4343 40.0013 38.333 40H30.333L24.333 46ZM24.333 24C26.2663 24 27.9163 23.3167 29.283 21.95C30.6497 20.5833 31.333 18.9333 31.333 17C31.333 15.0667 30.6497 13.4167 29.283 12.05C27.9163 10.6833 26.2663 10 24.333 10C22.3997 10 20.7497 10.6833 19.383 12.05C18.0163 13.4167 17.333 15.0667 17.333 17C17.333 18.9333 18.0163 20.5833 19.383 21.95C20.7497 23.3167 22.3997 24 24.333 24ZM10.333 36H38.333V33.7C36.533 31.9333 34.4417 30.542 32.059 29.526C29.6763 28.51 27.101 28.0013 24.333 28C21.565 27.9987 18.9897 28.5073 16.607 29.526C14.2243 30.5447 12.133 31.936 10.333 33.7V36Z" fill="white"/>
</svg>
