<svg width="49" height="48" viewBox="0 0 49 48" fill="none" xmlns="http://www.w3.org/2000/svg">
<g clip-path="url(#clip0_42_1662)">
<path d="M21.6655 4C24.8575 3.99979 27.985 4.89821 30.6901 6.59246C33.3953 8.28671 35.5688 10.7083 36.962 13.5802C38.3551 16.452 38.9116 19.6581 38.5677 22.8315C38.2239 26.0048 36.9935 29.0172 35.0175 31.524L42.3215 38.828C42.6859 39.2052 42.8875 39.7104 42.8829 40.2348C42.8783 40.7592 42.668 41.2608 42.2972 41.6316C41.9264 42.0025 41.4247 42.2128 40.9003 42.2173C40.376 42.2219 39.8708 42.0203 39.4935 41.656L32.1895 34.352C30.0604 36.0299 27.5609 37.1744 24.8996 37.6898C22.2382 38.2053 19.4922 38.0768 16.8906 37.3152C14.289 36.5536 11.9072 35.1808 9.94402 33.3115C7.98084 31.4421 6.49316 29.1304 5.6051 26.5692C4.71704 24.0079 4.45436 21.2715 4.83896 18.5881C5.22357 15.9047 6.2443 13.3522 7.81602 11.1435C9.38773 8.93483 11.4648 7.13405 13.8741 5.89139C16.2833 4.64873 18.9547 4.00023 21.6655 4ZM21.6655 8C18.2177 8 14.9111 9.36964 12.4732 11.8076C10.0352 14.2456 8.66555 17.5522 8.66555 21C8.66555 24.4478 10.0352 27.7544 12.4732 30.1924C14.9111 32.6304 18.2177 34 21.6655 34C25.1134 34 28.42 32.6304 30.8579 30.1924C33.2959 27.7544 34.6655 24.4478 34.6655 21C34.6655 17.5522 33.2959 14.2456 30.8579 11.8076C28.42 9.36964 25.1134 8 21.6655 8ZM21.6655 10C24.5829 10 27.3808 11.1589 29.4437 13.2218C31.5066 15.2847 32.6655 18.0826 32.6655 21C32.6655 23.9174 31.5066 26.7153 29.4437 28.7782C27.3808 30.8411 24.5829 32 21.6655 32C18.7482 32 15.9503 30.8411 13.8874 28.7782C11.8245 26.7153 10.6655 23.9174 10.6655 21C10.6655 18.0826 11.8245 15.2847 13.8874 13.2218C15.9503 11.1589 18.7482 10 21.6655 10Z" fill="white"/>
</g>
<defs>
<clipPath id="clip0_42_1662">
<rect width="48" height="48" fill="white" transform="translate(0.666016)"/>
</clipPath>
</defs>
</svg>
