<svg width="49" height="48" viewBox="0 0 49 48" fill="none" xmlns="http://www.w3.org/2000/svg">
<path fill-rule="evenodd" clip-rule="evenodd" d="M24.437 2.5H24.229C22.431 2.5 20.933 2.5 19.745 2.66C18.489 2.828 17.355 3.2 16.445 4.11C15.533 5.022 15.161 6.156 14.993 7.41C14.879 8.264 14.845 10.302 14.837 12.05C10.793 12.184 8.36301 12.656 6.67701 14.344C4.33301 16.686 4.33301 20.458 4.33301 28C4.33301 35.542 4.33301 39.314 6.67701 41.656C9.02101 43.998 12.791 44 20.333 44H28.333C35.875 44 39.647 44 41.989 41.656C44.331 39.312 44.333 35.542 44.333 28C44.333 20.458 44.333 16.686 41.989 14.344C40.303 12.656 37.873 12.184 33.829 12.052C33.821 10.302 33.789 8.264 33.673 7.412C33.505 6.156 33.133 5.022 32.221 4.112C31.311 3.2 30.177 2.828 28.921 2.66C27.733 2.5 26.233 2.5 24.437 2.5ZM30.829 12.004C30.819 10.31 30.791 8.488 30.701 7.81C30.575 6.888 30.361 6.492 30.101 6.232C29.841 5.972 29.445 5.758 28.521 5.632C27.557 5.504 26.261 5.5 24.333 5.5C22.405 5.5 21.109 5.504 20.143 5.634C19.221 5.758 18.825 5.972 18.565 6.234C18.305 6.496 18.091 6.888 17.965 7.81C17.875 8.49 17.845 10.31 17.837 12.004C18.621 12 19.453 11.9987 20.333 12H28.333C29.2157 12 30.0477 12.0013 30.829 12.004ZM24.333 18.5C24.7308 18.5 25.1124 18.658 25.3937 18.9393C25.675 19.2206 25.833 19.6022 25.833 20V20.02C28.011 20.568 29.833 22.286 29.833 24.666C29.833 25.0638 29.675 25.4454 29.3937 25.7267C29.1124 26.008 28.7308 26.166 28.333 26.166C27.9352 26.166 27.5537 26.008 27.2723 25.7267C26.991 25.4454 26.833 25.0638 26.833 24.666C26.833 23.898 25.981 22.834 24.333 22.834C22.685 22.834 21.833 23.898 21.833 24.666C21.833 25.434 22.685 26.5 24.333 26.5C27.103 26.5 29.833 28.42 29.833 31.334C29.833 33.714 28.011 35.43 25.833 35.98V36C25.833 36.3978 25.675 36.7794 25.3937 37.0607C25.1124 37.342 24.7308 37.5 24.333 37.5C23.9352 37.5 23.5537 37.342 23.2723 37.0607C22.991 36.7794 22.833 36.3978 22.833 36V35.98C20.655 35.432 18.833 33.714 18.833 31.334C18.833 30.9362 18.991 30.5546 19.2723 30.2733C19.5537 29.992 19.9352 29.834 20.333 29.834C20.7308 29.834 21.1124 29.992 21.3937 30.2733C21.675 30.5546 21.833 30.9362 21.833 31.334C21.833 32.102 22.685 33.166 24.333 33.166C25.981 33.166 26.833 32.102 26.833 31.334C26.833 30.566 25.981 29.5 24.333 29.5C21.563 29.5 18.833 27.58 18.833 24.666C18.833 22.286 20.655 20.568 22.833 20.02V20C22.833 19.6022 22.991 19.2206 23.2723 18.9393C23.5537 18.658 23.9352 18.5 24.333 18.5Z" fill="white"/>
</svg>
