<svg width="20" height="21" viewBox="0 0 20 21" fill="none" xmlns="http://www.w3.org/2000/svg">
<path d="M9.94967 3C9.07383 3.01162 8.2379 3.36812 7.62323 3.99216C7.00855 4.61619 6.66473 5.45742 6.66634 6.33333C6.61634 7.7 6.50801 9.225 5.85801 10.1583C8.09134 11.5167 9.99967 11.3333 9.99967 11.3333C9.99967 11.3333 11.908 11.5167 14.1413 10.1583C13.433 9.01667 13.283 7.61667 13.333 6.33333C13.333 4.49167 11.8413 3 9.99967 3H9.94967ZM7.38301 11.6C4.99967 12.1083 3.33301 13.2917 3.33301 14.6667V18H9.99967L7.49967 14.6667H5.41634M9.99967 18L11.483 12.0083C11.483 12.0083 10.833 12.1667 9.99967 12.1667C9.16634 12.1667 8.51634 12.0083 8.51634 12.0083M9.99967 18H16.6663V14.6667C16.6663 13.2917 14.9997 12.1083 12.6163 11.6L14.583 14.6667H12.4997L9.99967 18Z" fill="#1D2E39"/>
</svg>
