<svg width="20" height="21" viewBox="0 0 20 21" fill="none" xmlns="http://www.w3.org/2000/svg">
<g clip-path="url(#clip0_41_1075)">
<path fill-rule="evenodd" clip-rule="evenodd" d="M18.4543 2.81857C18.4543 3.12305 18.3943 3.42455 18.2778 3.70585C18.1613 3.98715 17.9905 4.24275 17.7752 4.45805C17.5599 4.67335 17.3043 4.84413 17.023 4.96065C16.7417 5.07717 16.4402 5.13714 16.1357 5.13714C15.8312 5.13714 15.5297 5.07717 15.2484 4.96065C14.9671 4.84413 14.7115 4.67335 14.4962 4.45805C14.2809 4.24275 14.1102 3.98715 13.9936 3.70585C13.8771 3.42455 13.8171 3.12305 13.8171 2.81857C13.8171 2.20365 14.0614 1.61391 14.4962 1.17909C14.9311 0.744277 15.5208 0.5 16.1357 0.5C16.7506 0.5 17.3404 0.744277 17.7752 1.17909C18.21 1.61391 18.4543 2.20365 18.4543 2.81857ZM19.9171 10.0143C19.8639 10.2519 19.7313 10.4643 19.5412 10.6164C19.3512 10.7686 19.1149 10.8515 18.8714 10.8514H10.14C9.85584 10.8514 9.58332 10.7385 9.38239 10.5376C9.18145 10.3367 9.06857 10.0642 9.06857 9.78C9.06857 9.49584 9.18145 9.22332 9.38239 9.02239C9.58332 8.82145 9.85584 8.70857 10.14 8.70857H12.42C12.6781 7.81388 13.2504 7.04241 14.0318 6.53597C14.8132 6.02953 15.7511 5.82215 16.6732 5.95197C17.5953 6.08178 18.4395 6.54005 19.0507 7.24255C19.6619 7.94505 19.999 8.84455 20 9.77571C19.9999 9.86228 19.9708 9.94631 19.9171 10.0143ZM1.94143 5.24857C1.94143 5.93472 2.214 6.59277 2.69919 7.07796C3.18437 7.56314 3.84242 7.83571 4.52857 7.83571C5.21472 7.83571 5.87277 7.56314 6.35796 7.07796C6.84314 6.59277 7.11571 5.93472 7.11571 5.24857C7.11571 4.56242 6.84314 3.90437 6.35796 3.41919C5.87277 2.934 5.21472 2.66143 4.52857 2.66143C3.84242 2.66143 3.18437 2.934 2.69919 3.41919C2.214 3.90437 1.94143 4.56242 1.94143 5.24857ZM0 13.3843C-8.86173e-09 12.7896 0.117135 12.2007 0.344717 11.6513C0.572299 11.1018 0.905871 10.6026 1.32639 10.1821C1.7469 9.76159 2.24613 9.42801 2.79556 9.20043C3.34499 8.97285 3.93387 8.85571 4.52857 8.85571C5.12327 8.85571 5.71215 8.97285 6.26158 9.20043C6.81101 9.42801 7.31024 9.76159 7.73076 10.1821C8.15127 10.6026 8.48484 11.1018 8.71243 11.6513C8.94001 12.2007 9.05714 12.7896 9.05714 13.3843V14.61C9.05714 14.7994 8.98189 14.9811 8.84793 15.1151C8.71398 15.249 8.5323 15.3243 8.34286 15.3243H7.11429L6.54571 19.8743C6.52413 20.047 6.44022 20.2059 6.30974 20.3211C6.17927 20.4363 6.01121 20.5 5.83714 20.5H3.21857C3.04451 20.5 2.87645 20.4363 2.74597 20.3211C2.6155 20.2059 2.53158 20.047 2.51 19.8743L1.94 15.3243H0.714286C0.524845 15.3243 0.343164 15.249 0.209209 15.1151C0.0752549 14.9811 0 14.7994 0 14.61V13.3843Z" fill="white"/>
</g>
<defs>
<clipPath id="clip0_41_1075">
<rect width="20" height="20" fill="white" transform="translate(0 0.5)"/>
</clipPath>
</defs>
</svg>
