<svg width="20" height="21" viewBox="0 0 20 21" fill="none" xmlns="http://www.w3.org/2000/svg">
<path d="M17.2227 5.82421C17.2462 5.81044 17.2658 5.79074 17.2794 5.76706C17.293 5.74338 17.3002 5.71655 17.3002 5.68924C17.3002 5.66194 17.293 5.63511 17.2794 5.61143C17.2658 5.58775 17.2462 5.56804 17.2227 5.55428L11.2563 2.08788C10.8745 1.8666 10.4411 1.75006 9.99981 1.75006C9.55855 1.75006 9.12512 1.8666 8.74336 2.08788L2.77813 5.55428C2.75454 5.56804 2.73497 5.58775 2.72137 5.61143C2.70777 5.63511 2.70062 5.66194 2.70062 5.68924C2.70062 5.71655 2.70777 5.74338 2.72137 5.76706C2.73497 5.79074 2.75454 5.81044 2.77813 5.82421L9.92188 10.0265C9.94591 10.0407 9.97329 10.0482 10.0012 10.0482C10.0291 10.0482 10.0564 10.0407 10.0805 10.0265L17.2227 5.82421ZM2.10938 6.8871C2.08555 6.87334 2.05851 6.86612 2.031 6.86616C2.00349 6.8662 1.97647 6.87351 1.95269 6.88735C1.9289 6.90118 1.9092 6.92105 1.89556 6.94494C1.88191 6.96884 1.87482 6.99591 1.875 7.02342V13.816C1.87559 14.1433 1.96187 14.4648 2.12524 14.7485C2.28862 15.0321 2.52341 15.268 2.80625 15.4328L9.14063 19.2308C9.16437 19.2446 9.1913 19.2518 9.21871 19.2518C9.24613 19.2518 9.27306 19.2446 9.29681 19.2309C9.32056 19.2172 9.34028 19.1975 9.35401 19.1738C9.36774 19.15 9.37498 19.1231 9.375 19.0957V11.2148C9.37498 11.1874 9.36774 11.1605 9.35403 11.1368C9.34032 11.1131 9.32061 11.0934 9.29688 11.0797L2.10938 6.8871ZM10.625 11.2422V19.0937C10.625 19.1211 10.6323 19.1481 10.646 19.1718C10.6597 19.1955 10.6794 19.2152 10.7032 19.2289C10.7269 19.2426 10.7539 19.2498 10.7813 19.2498C10.8087 19.2498 10.8356 19.2426 10.8594 19.2289L17.1934 15.4308C17.476 15.2663 17.7107 15.0307 17.8741 14.7474C18.0375 14.4641 18.124 14.143 18.125 13.816V7.02342C18.1249 6.99604 18.1176 6.96917 18.1039 6.94549C18.0901 6.92182 18.0704 6.90217 18.0466 6.88852C18.0229 6.87487 17.996 6.8677 17.9686 6.86772C17.9412 6.86775 17.9143 6.87497 17.8906 6.88866L10.7031 11.1074C10.6795 11.1211 10.6598 11.1407 10.6461 11.1644C10.6324 11.188 10.6251 11.2148 10.625 11.2422Z" fill="white"/>
</svg>
