<svg width="20" height="21" viewBox="0 0 20 21" fill="none" xmlns="http://www.w3.org/2000/svg">
<path d="M10 3.0025C9.67202 3.0025 9.34726 3.0671 9.04425 3.19261C8.74124 3.31812 8.46592 3.50209 8.234 3.734C8.00209 3.96592 7.81812 4.24124 7.69261 4.54425C7.5671 4.84726 7.5025 5.17203 7.5025 5.5C7.5025 5.82798 7.5671 6.15274 7.69261 6.45575C7.81812 6.75877 8.00209 7.03409 8.234 7.266C8.46592 7.49792 8.74124 7.68188 9.04425 7.80739C9.34726 7.9329 9.67202 7.9975 10 7.9975C10.6624 7.9975 11.2976 7.73437 11.766 7.266C12.2344 6.79763 12.4975 6.16238 12.4975 5.5C12.4975 4.83762 12.2344 4.20238 11.766 3.734C11.2976 3.26563 10.6624 3.0025 10 3.0025ZM15.625 4.25C15.1277 4.25 14.6508 4.44755 14.2992 4.79918C13.9475 5.15081 13.75 5.62772 13.75 6.125C13.75 6.62228 13.9475 7.0992 14.2992 7.45083C14.6508 7.80246 15.1277 8 15.625 8C16.1223 8 16.5992 7.80246 16.9508 7.45083C17.3025 7.0992 17.5 6.62228 17.5 6.125C17.5 5.62772 17.3025 5.15081 16.9508 4.79918C16.5992 4.44755 16.1223 4.25 15.625 4.25ZM4.375 4.25C3.87772 4.25 3.40081 4.44755 3.04918 4.79918C2.69754 5.15081 2.5 5.62772 2.5 6.125C2.5 6.62228 2.69754 7.0992 3.04918 7.45083C3.40081 7.80246 3.87772 8 4.375 8C4.87228 8 5.3492 7.80246 5.70083 7.45083C6.05246 7.0992 6.25 6.62228 6.25 6.125C6.25 5.62772 6.05246 5.15081 5.70083 4.79918C5.3492 4.44755 4.87228 4.25 4.375 4.25ZM6.25 10.4913C6.25231 10.1613 6.38503 9.84555 6.6192 9.61302C6.85337 9.38049 7.16999 9.24999 7.5 9.25H12.5C12.8315 9.25 13.1495 9.3817 13.3839 9.61612C13.6183 9.85054 13.75 10.1685 13.75 10.5V14.25C13.7503 14.6434 13.6887 15.0345 13.5675 15.4088C13.2907 16.2571 12.7206 16.979 11.9594 17.4449C11.1982 17.9107 10.2959 18.0899 9.41454 17.9503C8.53313 17.8108 7.73035 17.3616 7.15035 16.6833C6.57035 16.0051 6.25113 15.1424 6.25 14.25V10.4913ZM5 10.5C5 10.0438 5.12125 9.6175 5.335 9.25H2.5C2.16848 9.25 1.85054 9.3817 1.61612 9.61612C1.3817 9.85054 1.25 10.1685 1.25 10.5V13.625C1.24983 14.1366 1.37528 14.6405 1.61534 15.0923C1.8554 15.5441 2.20272 15.9301 2.6268 16.2163C3.05088 16.5025 3.53876 16.6802 4.04757 16.7338C4.55639 16.7874 5.07058 16.7153 5.545 16.5238C5.18599 15.8192 4.99921 15.0395 5 14.2488V10.5ZM15 10.5V14.25C15 15.0688 14.8038 15.8413 14.455 16.5238C14.9294 16.7153 15.4436 16.7874 15.9524 16.7338C16.4612 16.6802 16.9491 16.5025 17.3732 16.2163C17.7973 15.9301 18.1446 15.5441 18.3847 15.0923C18.6247 14.6405 18.7502 14.1366 18.75 13.625V10.5C18.75 10.1685 18.6183 9.85054 18.3839 9.61612C18.1495 9.3817 17.8315 9.25 17.5 9.25H14.665C14.8775 9.6175 15 10.0438 15 10.5Z" fill="#1D2E39"/>
</svg>
