<svg width="20" height="21" viewBox="0 0 20 21" fill="none" xmlns="http://www.w3.org/2000/svg">
<path d="M17.3244 2.0625H2.67594C1.54312 2.0625 0.625 2.97438 0.625 4.09906V13.4094C0.625 14.5338 1.54312 15.4462 2.67594 15.4462H4.83781V18.9375L8.08469 15.4462H17.3244C18.4575 15.4462 19.3753 14.5338 19.3753 13.4094V4.09906C19.375 2.97438 18.4572 2.0625 17.3244 2.0625ZM4.99594 10.0638C4.2675 10.0638 3.6775 9.47781 3.6775 8.75437C3.6775 8.03125 4.2675 7.44531 4.99594 7.44531C5.72438 7.44531 6.31437 8.03125 6.31437 8.75437C6.31437 9.4775 5.72438 10.0638 4.99594 10.0638ZM10 10.0638C9.27219 10.0638 8.68156 9.47781 8.68156 8.75437C8.68156 8.03125 9.27219 7.44531 10 7.44531C10.7278 7.44531 11.3184 8.03125 11.3184 8.75437C11.3184 9.4775 10.7278 10.0638 10 10.0638ZM15.0041 10.0638C14.2756 10.0638 13.6856 9.47781 13.6856 8.75437C13.6856 8.03125 14.2756 7.44531 15.0041 7.44531C15.7319 7.44531 16.3225 8.03125 16.3225 8.75437C16.3222 9.47781 15.7319 10.0638 15.0041 10.0638Z" fill="white"/>
</svg>
