<svg width="20" height="21" viewBox="0 0 20 21" fill="none" xmlns="http://www.w3.org/2000/svg">
<path fill-rule="evenodd" clip-rule="evenodd" d="M3.21295 6.29995C3.22795 7.05895 2.81495 8.08495 2.27795 8.62095C1.77965 9.11972 1.49976 9.79592 1.49976 10.5009C1.49976 11.206 1.77965 11.8822 2.27795 12.3809C2.80795 12.9089 3.19795 13.8249 3.21295 14.5729C3.22695 15.2349 3.48595 15.8929 3.99095 16.3969C4.45686 16.8638 5.08014 17.1402 5.73895 17.1719C6.52995 17.2119 7.56595 17.6719 8.12595 18.2319C8.62468 18.7299 9.30066 19.0096 10.0054 19.0096C10.7102 19.0096 11.3862 18.7299 11.8849 18.2319C12.4449 17.6719 13.4809 17.2119 14.2719 17.1719C14.9308 17.1402 15.554 16.8638 16.0199 16.3969C16.5057 15.9119 16.7842 15.2573 16.7969 14.5709C16.8119 13.8249 17.1969 12.9149 17.7259 12.3869C18.2261 11.8883 18.5078 11.2115 18.5089 10.5052C18.51 9.79893 18.2305 9.12115 17.7319 8.62095C17.1959 8.08595 16.7819 7.05895 16.7979 6.30095C16.8055 5.94306 16.7404 5.58736 16.6067 5.25531C16.473 4.92326 16.2734 4.62174 16.0199 4.36895C15.7573 4.10559 15.4421 3.90048 15.0949 3.76695C14.7478 3.63342 14.3764 3.57448 14.0049 3.59395C13.2909 3.62995 12.3899 3.28395 11.8849 2.77795C11.3862 2.27965 10.71 1.99976 10.0049 1.99976C9.29992 1.99976 8.62372 2.27965 8.12495 2.77795C7.62095 3.28295 6.71895 3.62995 6.00495 3.59395C5.63367 3.57462 5.26247 3.63364 4.91549 3.76716C4.56851 3.90068 4.2535 4.10572 3.99095 4.36895C3.73763 4.62162 3.5381 4.92298 3.40438 5.25485C3.27067 5.58672 3.20555 5.94223 3.21295 6.29995ZM13.0409 7.12595C13.1558 7.18968 13.257 7.27542 13.3387 7.37827C13.4204 7.48112 13.4811 7.59906 13.5172 7.72536C13.5533 7.85165 13.5642 7.98383 13.5492 8.11433C13.5343 8.24484 13.4937 8.37111 13.4299 8.48595L10.6619 13.4679C10.5903 13.6036 10.4883 13.721 10.3639 13.8109C10.1833 13.9417 9.96407 14.0083 9.74121 14.0001C9.51834 13.9919 9.30459 13.9095 9.13395 13.7659L6.37495 11.5589C6.27239 11.4769 6.18699 11.3754 6.12365 11.2603C6.0603 11.1452 6.02024 11.0188 6.00576 10.8883C5.99127 10.7577 6.00264 10.6256 6.03922 10.4994C6.0758 10.3732 6.13687 10.2555 6.21895 10.1529C6.30102 10.0504 6.4025 9.96499 6.51758 9.90165C6.63265 9.8383 6.75908 9.79824 6.88964 9.78376C7.0202 9.76927 7.15233 9.78064 7.2785 9.81722C7.40466 9.8538 7.52239 9.91487 7.62495 9.99695L9.47795 11.4799L11.6809 7.51395C11.7448 7.39917 11.8306 7.29809 11.9335 7.21647C12.0363 7.13485 12.1543 7.0743 12.2806 7.03827C12.4069 7.00224 12.539 6.99144 12.6695 7.00648C12.8 7.02153 12.9262 7.06212 13.0409 7.12595Z" fill="#0A0F14"/>
</svg>
