<svg width="20" height="21" viewBox="0 0 20 21" fill="none" xmlns="http://www.w3.org/2000/svg">
<path fill-rule="evenodd" clip-rule="evenodd" d="M10.0432 1.54163H9.9565C9.20734 1.54163 8.58317 1.54163 8.08817 1.60829C7.56484 1.67829 7.09234 1.83329 6.71317 2.21246C6.33317 2.59246 6.17817 3.06496 6.10817 3.58746C6.06067 3.94329 6.0465 4.79246 6.04317 5.52079C4.35817 5.57663 3.34567 5.77329 2.64317 6.47663C1.6665 7.45246 1.6665 9.02413 1.6665 12.1666C1.6665 15.3091 1.6665 16.8808 2.64317 17.8566C3.61984 18.8325 5.19067 18.8333 8.33317 18.8333H11.6665C14.809 18.8333 16.3807 18.8333 17.3565 17.8566C18.3323 16.88 18.3332 15.3091 18.3332 12.1666C18.3332 9.02413 18.3332 7.45246 17.3565 6.47663C16.654 5.77329 15.6415 5.57663 13.9565 5.52163C13.9532 4.79246 13.9398 3.94329 13.8915 3.58829C13.8215 3.06496 13.6665 2.59246 13.2865 2.21329C12.9073 1.83329 12.4348 1.67829 11.9115 1.60829C11.4165 1.54163 10.7915 1.54163 10.0432 1.54163ZM12.7065 5.50163C12.7023 4.79579 12.6907 4.03663 12.6532 3.75413C12.6007 3.36996 12.5115 3.20496 12.4032 3.09663C12.2948 2.98829 12.1298 2.89913 11.7448 2.84663C11.3432 2.79329 10.8032 2.79163 9.99984 2.79163C9.1965 2.79163 8.6565 2.79329 8.254 2.84746C7.86984 2.89913 7.70484 2.98829 7.5965 3.09746C7.48817 3.20663 7.399 3.36996 7.3465 3.75413C7.309 4.03746 7.2965 4.79579 7.29317 5.50163C7.61984 5.49996 7.9665 5.4994 8.33317 5.49996H11.6665C12.0343 5.49996 12.3809 5.50051 12.7065 5.50163ZM9.99984 8.20829C10.1656 8.20829 10.3246 8.27414 10.4418 8.39135C10.559 8.50856 10.6248 8.66753 10.6248 8.83329V8.84163C11.5323 9.06996 12.2915 9.78579 12.2915 10.7775C12.2915 10.9432 12.2257 11.1022 12.1084 11.2194C11.9912 11.3366 11.8323 11.4025 11.6665 11.4025C11.5007 11.4025 11.3418 11.3366 11.2246 11.2194C11.1074 11.1022 11.0415 10.9432 11.0415 10.7775C11.0415 10.4575 10.6865 10.0141 9.99984 10.0141C9.31317 10.0141 8.95817 10.4575 8.95817 10.7775C8.95817 11.0975 9.31317 11.5416 9.99984 11.5416C11.154 11.5416 12.2915 12.3416 12.2915 13.5558C12.2915 14.5475 11.5323 15.2625 10.6248 15.4916V15.5C10.6248 15.6657 10.559 15.8247 10.4418 15.9419C10.3246 16.0591 10.1656 16.125 9.99984 16.125C9.83408 16.125 9.67511 16.0591 9.5579 15.9419C9.44069 15.8247 9.37484 15.6657 9.37484 15.5V15.4916C8.46734 15.2633 7.70817 14.5475 7.70817 13.5558C7.70817 13.39 7.77402 13.2311 7.89123 13.1139C8.00844 12.9966 8.16741 12.9308 8.33317 12.9308C8.49893 12.9308 8.6579 12.9966 8.77511 13.1139C8.89232 13.2311 8.95817 13.39 8.95817 13.5558C8.95817 13.8758 9.31317 14.3191 9.99984 14.3191C10.6865 14.3191 11.0415 13.8758 11.0415 13.5558C11.0415 13.2358 10.6865 12.7916 9.99984 12.7916C8.84567 12.7916 7.70817 11.9916 7.70817 10.7775C7.70817 9.78579 8.46734 9.06996 9.37484 8.84163V8.83329C9.37484 8.66753 9.44069 8.50856 9.5579 8.39135C9.67511 8.27414 9.83408 8.20829 9.99984 8.20829Z" fill="#1D2E39"/>
</svg>
