<svg width="20" height="21" viewBox="0 0 20 21" fill="none" xmlns="http://www.w3.org/2000/svg">
<path d="M4.99984 18.4166C4.19428 18.4166 3.50678 18.1319 2.93734 17.5625C2.36789 16.993 2.08317 16.3055 2.08317 15.5C2.08317 14.6944 2.36789 14.0069 2.93734 13.4375C3.50678 12.868 4.19428 12.5833 4.99984 12.5833C5.80539 12.5833 6.49289 12.868 7.06234 13.4375C7.63178 14.0069 7.9165 14.6944 7.9165 15.5C7.9165 15.8055 7.8715 16.1008 7.7815 16.3858C7.6915 16.6708 7.55595 16.938 7.37484 17.1875V16.625C7.7915 16.8055 8.22206 16.9411 8.6665 17.0316C9.11095 17.1222 9.55539 17.1672 9.99984 17.1666C11.8609 17.1666 13.4373 16.5208 14.729 15.2291C16.0207 13.9375 16.6665 12.3611 16.6665 10.5H18.3332C18.3332 11.6527 18.1143 12.7361 17.6765 13.75C17.2387 14.7638 16.6451 15.6458 15.8957 16.3958C15.1462 17.1458 14.2643 17.7397 13.2498 18.1775C12.2354 18.6152 11.1521 18.8338 9.99984 18.8333C9.37484 18.8333 8.76373 18.7672 8.1665 18.635C7.56928 18.5027 6.99289 18.305 6.43734 18.0416C6.21511 18.1666 5.98261 18.2605 5.73984 18.3233C5.49706 18.3861 5.25039 18.4172 4.99984 18.4166ZM9.99984 13.4166C9.19428 13.4166 8.50678 13.1319 7.93734 12.5625C7.36789 11.993 7.08317 11.3055 7.08317 10.5C7.08317 9.6944 7.36789 9.0069 7.93734 8.43746C8.50678 7.86801 9.19428 7.58329 9.99984 7.58329C10.8054 7.58329 11.4929 7.86801 12.0623 8.43746C12.6318 9.0069 12.9165 9.6944 12.9165 10.5C12.9165 11.3055 12.6318 11.993 12.0623 12.5625C11.4929 13.1319 10.8054 13.4166 9.99984 13.4166ZM1.6665 10.5C1.6665 9.34718 1.88539 8.26385 2.32317 7.24996C2.76095 6.23607 3.35456 5.35413 4.104 4.60413C4.85345 3.85413 5.73539 3.26051 6.74984 2.82329C7.76428 2.38607 8.84761 2.16718 9.99984 2.16663C10.6248 2.16663 11.2359 2.23274 11.8332 2.36496C12.4304 2.49718 13.0068 2.69496 13.5623 2.95829C13.7846 2.83329 14.0173 2.7394 14.2607 2.67663C14.504 2.61385 14.7504 2.58274 14.9998 2.58329C15.8054 2.58329 16.4929 2.86801 17.0623 3.43746C17.6318 4.0069 17.9165 4.6944 17.9165 5.49996C17.9165 6.30551 17.6318 6.99302 17.0623 7.56246C16.4929 8.1319 15.8054 8.41663 14.9998 8.41663C14.1943 8.41663 13.5068 8.1319 12.9373 7.56246C12.3679 6.99302 12.0832 6.30551 12.0832 5.49996C12.0832 5.1944 12.1284 4.8994 12.219 4.61496C12.3096 4.33051 12.4448 4.06301 12.6248 3.81246V4.37496C12.2082 4.1944 11.7776 4.05885 11.3332 3.96829C10.8887 3.87774 10.4443 3.83274 9.99984 3.83329C8.13873 3.83329 6.56234 4.47913 5.27067 5.77079C3.979 7.06246 3.33317 8.63885 3.33317 10.5H1.6665Z" fill="#1D2E39"/>
</svg>
