<svg width="20" height="21" viewBox="0 0 20 21" fill="none" xmlns="http://www.w3.org/2000/svg">
<path d="M9.62494 3.005H10.1166C12.4366 3.84833 14.7558 4.69167 17.0566 5.54917C17.2683 5.62417 17.4133 5.81167 17.4983 6.11167V10.8725L10.3749 18H9.87327L2.92827 15.46C2.74077 15.395 2.60077 15.2025 2.50244 14.8933V10.1417L9.62494 3V3.005Z" fill="#1D2E39"/>
<path d="M16.5602 6.30837L10.1644 12.7525C10.0756 12.745 9.98671 12.7402 9.89769 12.7384C9.80946 12.7379 9.72201 12.7218 9.63936 12.6909C7.70847 12.0061 5.78231 11.308 3.86103 10.5967C3.67436 10.5259 3.59436 10.395 3.60853 10.2125L9.87853 3.95171C9.89946 3.93151 9.92532 3.91715 9.95353 3.91004C9.98121 3.90434 10.0099 3.90577 10.0369 3.91421L16.5602 6.30421V6.30837Z" fill="#1D2E39"/>
<path d="M11.5374 8.13167C10.5907 7.48 10.4791 6.37917 10.3657 6.04167C11.0288 5.83237 11.7447 5.86545 12.3857 6.135C13.1441 6.44 13.3507 7.19 12.6899 7.73334C12.3678 8.00337 11.9575 8.14519 11.5374 8.13167Z" fill="#1D2E39"/>
<path d="M10.3619 6.04163C10.5919 6.79254 11.0997 7.42739 11.7819 7.81663C11.8032 7.82915 11.8209 7.84705 11.8332 7.86854C11.8455 7.89004 11.8519 7.91437 11.8519 7.93913C11.8514 7.96249 11.8451 7.98538 11.8336 8.00573C11.8221 8.02609 11.8058 8.04329 11.786 8.05579C11.7127 8.10137 11.6289 8.12721 11.5427 8.13079C10.7694 8.21579 9.04019 7.72829 9.61186 6.65996C9.74352 6.40663 9.99602 6.20496 10.3619 6.04163ZM16.561 6.29413V10.3283C16.561 10.47 16.5752 10.6008 16.4769 10.695L10.0002 17.0758V12.7508L16.561 6.29413ZM9.29769 10.6425C8.45436 10.0666 7.92936 9.39663 7.71436 8.63746C8.3293 8.40827 9.00893 8.42498 9.61186 8.68413C10.4369 9.03579 10.7369 9.83663 9.85519 10.4133C9.59269 10.5816 9.40519 10.6616 9.30186 10.6466L9.29769 10.6425Z" fill="#1D2E39"/>
<path d="M7.71317 8.63745C7.92872 9.39634 8.45817 10.0666 9.3015 10.6483C8.53372 10.8355 7.86705 10.7511 7.3015 10.395C6.41983 9.84662 6.86483 8.92328 7.71317 8.63745ZM3.61317 10.2116C3.59928 10.3988 3.68372 10.5266 3.8665 10.595C5.78629 11.3047 7.71077 12.0016 9.63983 12.6858C9.71872 12.718 9.80455 12.7336 9.89733 12.7325H9.99983V17.0766C7.8765 16.2933 5.62317 15.5016 3.52817 14.7566C3.4065 14.71 3.439 14.6258 3.439 14.4991V10.4975C3.439 10.3941 3.449 10.3008 3.61317 10.2116Z" fill="#1D2E39"/>
</svg>
