<svg width="20" height="21" viewBox="0 0 20 21" fill="none" xmlns="http://www.w3.org/2000/svg">
<path fill-rule="evenodd" clip-rule="evenodd" d="M10 12.9998C10 12.2041 10.3161 11.441 10.8787 10.8784C11.4413 10.3158 12.2043 9.99976 13 9.99976H17C17.5304 9.99976 18.0391 10.2105 18.4142 10.5855C18.7893 10.9606 19 11.4693 19 11.9998V13.9997C19 14.5302 18.7893 15.0389 18.4142 15.414C18.0391 15.789 17.5304 15.9997 17 15.9997H13C12.2043 15.9997 11.4413 15.6837 10.8787 15.1211C10.3161 14.5585 10 13.7954 10 12.9998ZM13 11.9998C12.7348 11.9998 12.4804 12.1051 12.2929 12.2926C12.1054 12.4802 12 12.7345 12 12.9998C12 13.265 12.1054 13.5193 12.2929 13.7069C12.4804 13.8944 12.7348 13.9997 13 13.9997H17V11.9998H13Z" fill="#1D2E39"/>
<path fill-rule="evenodd" clip-rule="evenodd" d="M10.293 2.29279C10.4805 2.10532 10.7348 2 11 2C11.2651 2 11.5195 2.10532 11.707 2.29279L14.414 4.99978H11.586L10.293 3.70678C10.1055 3.51926 10.0002 3.26495 10.0002 2.99978C10.0002 2.73462 10.1055 2.48031 10.293 2.29279ZM10.414 4.99978L7.70699 2.29279C7.51946 2.10532 7.26515 2 6.99999 2C6.73483 2 6.48052 2.10532 6.29299 2.29279L3.586 4.99978H10.414ZM2.586 5.99978L2.53 6.05478C2.09371 6.16026 1.70558 6.40944 1.42806 6.76223C1.15055 7.11503 0.999774 7.55091 1 7.99978V17.9998C1 18.5302 1.21071 19.0389 1.58579 19.414C1.96086 19.789 2.46956 19.9998 3 19.9998H15C15.5304 19.9998 16.0391 19.789 16.4142 19.414C16.7893 19.0389 17 18.5302 17 17.9998H13C11.6739 17.9998 10.4021 17.473 9.46445 16.5353C8.52677 15.5976 7.99999 14.3258 7.99999 12.9998C7.99999 11.6737 8.52677 10.4019 9.46445 9.46424C10.4021 8.52656 11.6739 7.99978 13 7.99978H17C17.0002 7.55091 16.8494 7.11503 16.5719 6.76223C16.2944 6.40944 15.9063 6.16026 15.47 6.05478L15.414 5.99978H2.586Z" fill="#1D2E39"/>
</svg>
