<svg width="20" height="21" viewBox="0 0 20 21" fill="none" xmlns="http://www.w3.org/2000/svg">
<path d="M1.6665 9.66671C1.6665 5.06421 5.39734 1.33337 9.99984 1.33337C14.6023 1.33337 18.3332 5.06421 18.3332 9.66671V13.9617C18.3332 15.3334 17.1498 16.3334 15.8332 16.3334H13.3332V9.66671H16.6665C16.6665 7.8986 15.9641 6.2029 14.7139 4.95266C13.4636 3.70242 11.7679 3.00004 9.99984 3.00004C8.23173 3.00004 6.53603 3.70242 5.28579 4.95266C4.03555 6.2029 3.33317 7.8986 3.33317 9.66671H6.6665V16.3334H5.05234C5.14473 16.6912 5.35343 17.0082 5.64563 17.2345C5.93782 17.4607 6.29694 17.5835 6.6665 17.5834H7.96984C8.23317 17.2059 8.67067 16.9584 9.1665 16.9584H10.8332C11.2199 16.9584 11.5909 17.112 11.8644 17.3855C12.1379 17.659 12.2915 18.0299 12.2915 18.4167C12.2915 18.8035 12.1379 19.1744 11.8644 19.4479C11.5909 19.7214 11.2199 19.875 10.8332 19.875H9.1665C8.67067 19.875 8.23317 19.6275 7.96984 19.25H6.6665C5.83143 19.2501 5.02673 18.9368 4.41163 18.372C3.79652 17.8072 3.41582 17.0321 3.34484 16.2C2.39484 15.8859 1.6665 15.0384 1.6665 13.9625V9.66671Z" fill="#1D2E39"/>
</svg>
