<svg width="20" height="21" viewBox="0 0 20 21" fill="none" xmlns="http://www.w3.org/2000/svg">
<g clip-path="url(#clip0_40_768)">
<path fill-rule="evenodd" clip-rule="evenodd" d="M8.90429 4.78573C8.65361 5.22037 8.29289 5.58133 7.85841 5.83231C7.42394 6.08328 6.93104 6.21541 6.42929 6.21541C5.92754 6.21541 5.43463 6.08328 5.00016 5.83231C4.56569 5.58133 4.20497 5.22037 3.95429 4.78573H1.42857C1.04969 4.78573 0.686328 4.63522 0.418419 4.36731C0.15051 4.0994 7.45058e-08 3.73604 7.45058e-08 3.35716C7.45058e-08 2.97828 0.15051 2.61491 0.418419 2.347C0.686328 2.07909 1.04969 1.92858 1.42857 1.92858H3.95429C4.20497 1.49394 4.56569 1.13298 5.00016 0.882007C5.43463 0.631034 5.92754 0.498901 6.42929 0.498901C6.93104 0.498901 7.42394 0.631034 7.85841 0.882007C8.29289 1.13298 8.65361 1.49394 8.90429 1.92858H15.3571C16.5885 1.92858 17.7694 2.41774 18.6401 3.28845C19.5108 4.15915 20 5.34008 20 6.57144C20 7.8028 19.5108 8.98373 18.6401 9.85444C17.7694 10.7251 16.5885 11.2143 15.3571 11.2143H14.6186C14.368 11.6493 14.0072 12.0106 13.5726 12.2618C13.138 12.513 12.6449 12.6452 12.1429 12.6452C11.6409 12.6452 11.1477 12.513 10.7131 12.2618C10.2785 12.0106 9.91773 11.6493 9.66714 11.2143H5C4.43168 11.2143 3.88664 11.4401 3.48477 11.8419C3.08291 12.2438 2.85714 12.7888 2.85714 13.3572C2.85714 13.9255 3.08291 14.4705 3.48477 14.8724C3.88664 15.2742 4.43168 15.5 5 15.5H5.38286C5.63363 15.0657 5.99431 14.7051 6.42863 14.4543C6.86296 14.2036 7.35564 14.0716 7.85714 14.0716C8.35865 14.0716 8.85133 14.2036 9.28565 14.4543C9.71998 14.7051 10.0807 15.0657 10.3314 15.5H15.7143V14.0714C15.714 13.93 15.7558 13.7916 15.8343 13.6739C15.9127 13.5562 16.0244 13.4645 16.1551 13.4103C16.2857 13.3562 16.4295 13.342 16.5683 13.3697C16.707 13.3973 16.8344 13.4656 16.9343 13.5657L19.7914 16.4229C19.9253 16.5568 20.0006 16.7385 20.0006 16.9279C20.0006 17.1173 19.9253 17.2989 19.7914 17.4329L16.9343 20.29C16.8345 20.3901 16.7072 20.4583 16.5686 20.486C16.43 20.5137 16.2863 20.4997 16.1557 20.4457C16.0251 20.3917 15.9134 20.3002 15.8349 20.1827C15.7563 20.0652 15.7143 19.9271 15.7143 19.7857V18.3572H10.3329C10.0823 18.7921 9.72151 19.1534 9.28689 19.4046C8.85227 19.6558 8.35914 19.7881 7.85714 19.7881C7.35515 19.7881 6.86202 19.6558 6.4274 19.4046C5.99278 19.1534 5.63201 18.7921 5.38143 18.3572H5C4.34339 18.3572 3.69321 18.2278 3.08658 17.9766C2.47996 17.7253 1.92876 17.357 1.46447 16.8927C1.00017 16.4284 0.631876 15.8772 0.380602 15.2706C0.129329 14.6639 0 14.0138 0 13.3572C0 12.7005 0.129329 12.0504 0.380602 11.4437C0.631876 10.8371 1.00017 10.2859 1.46447 9.82162C1.92876 9.35733 2.47996 8.98903 3.08658 8.73776C3.69321 8.48649 4.34339 8.35716 5 8.35716H9.66857C9.91935 7.92285 10.28 7.5622 10.7143 7.31146C11.1487 7.06072 11.6413 6.92871 12.1429 6.92871C12.6444 6.92871 13.137 7.06072 13.5714 7.31146C14.0057 7.5622 14.3664 7.92285 14.6171 8.35716H15.3571C15.8307 8.35716 16.2849 8.16902 16.6198 7.83413C16.9547 7.49925 17.1429 7.04504 17.1429 6.57144C17.1429 6.09784 16.9547 5.64364 16.6198 5.30875C16.2849 4.97387 15.8307 4.78573 15.3571 4.78573H8.90429Z" fill="#1D2E39"/>
</g>
<defs>
<clipPath id="clip0_40_768">
<rect width="20" height="20" fill="white" transform="translate(0 0.5)"/>
</clipPath>
</defs>
</svg>
