<svg width="20" height="21" viewBox="0 0 20 21" fill="none" xmlns="http://www.w3.org/2000/svg">
<path d="M6.45825 2.58337C6.45825 2.41761 6.39241 2.25864 6.2752 2.14143C6.15799 2.02422 5.99902 1.95837 5.83325 1.95837C5.66749 1.95837 5.50852 2.02422 5.39131 2.14143C5.2741 2.25864 5.20825 2.41761 5.20825 2.58337V3.90004C4.00826 3.99587 3.22159 4.23087 2.64326 4.81004C2.06409 5.38837 1.82909 6.17587 1.73242 7.37504H18.2674C18.1708 6.17504 17.9358 5.38837 17.3566 4.81004C16.7783 4.23087 15.9908 3.99587 14.7916 3.89921V2.58337C14.7916 2.41761 14.7257 2.25864 14.6085 2.14143C14.4913 2.02422 14.3323 1.95837 14.1666 1.95837C14.0008 1.95837 13.8419 2.02422 13.7246 2.14143C13.6074 2.25864 13.5416 2.41761 13.5416 2.58337V3.84421C12.9874 3.83337 12.3658 3.83337 11.6666 3.83337H8.33325C7.63409 3.83337 7.01242 3.83337 6.45825 3.84421V2.58337Z" fill="#1D2E39"/>
<path fill-rule="evenodd" clip-rule="evenodd" d="M1.6665 10.5C1.6665 9.80083 1.6665 9.17917 1.67734 8.625H18.3223C18.3332 9.17917 18.3332 9.80083 18.3332 10.5V12.1667C18.3332 15.3092 18.3332 16.8808 17.3565 17.8567C16.3798 18.8325 14.809 18.8333 11.6665 18.8333H8.33317C5.19067 18.8333 3.619 18.8333 2.64317 17.8567C1.66734 16.88 1.6665 15.3092 1.6665 12.1667V10.5ZM14.1665 12.1667C14.3875 12.1667 14.5995 12.0789 14.7558 11.9226C14.912 11.7663 14.9998 11.5543 14.9998 11.3333C14.9998 11.1123 14.912 10.9004 14.7558 10.7441C14.5995 10.5878 14.3875 10.5 14.1665 10.5C13.9455 10.5 13.7335 10.5878 13.5772 10.7441C13.421 10.9004 13.3332 11.1123 13.3332 11.3333C13.3332 11.5543 13.421 11.7663 13.5772 11.9226C13.7335 12.0789 13.9455 12.1667 14.1665 12.1667ZM14.1665 15.5C14.3875 15.5 14.5995 15.4122 14.7558 15.2559C14.912 15.0996 14.9998 14.8877 14.9998 14.6667C14.9998 14.4457 14.912 14.2337 14.7558 14.0774C14.5995 13.9211 14.3875 13.8333 14.1665 13.8333C13.9455 13.8333 13.7335 13.9211 13.5772 14.0774C13.421 14.2337 13.3332 14.4457 13.3332 14.6667C13.3332 14.8877 13.421 15.0996 13.5772 15.2559C13.7335 15.4122 13.9455 15.5 14.1665 15.5ZM10.8332 11.3333C10.8332 11.5543 10.7454 11.7663 10.5891 11.9226C10.4328 12.0789 10.2209 12.1667 9.99984 12.1667C9.77882 12.1667 9.56686 12.0789 9.41058 11.9226C9.2543 11.7663 9.1665 11.5543 9.1665 11.3333C9.1665 11.1123 9.2543 10.9004 9.41058 10.7441C9.56686 10.5878 9.77882 10.5 9.99984 10.5C10.2209 10.5 10.4328 10.5878 10.5891 10.7441C10.7454 10.9004 10.8332 11.1123 10.8332 11.3333ZM10.8332 14.6667C10.8332 14.8877 10.7454 15.0996 10.5891 15.2559C10.4328 15.4122 10.2209 15.5 9.99984 15.5C9.77882 15.5 9.56686 15.4122 9.41058 15.2559C9.2543 15.0996 9.1665 14.8877 9.1665 14.6667C9.1665 14.4457 9.2543 14.2337 9.41058 14.0774C9.56686 13.9211 9.77882 13.8333 9.99984 13.8333C10.2209 13.8333 10.4328 13.9211 10.5891 14.0774C10.7454 14.2337 10.8332 14.4457 10.8332 14.6667ZM5.83317 12.1667C6.05418 12.1667 6.26615 12.0789 6.42243 11.9226C6.57871 11.7663 6.6665 11.5543 6.6665 11.3333C6.6665 11.1123 6.57871 10.9004 6.42243 10.7441C6.26615 10.5878 6.05418 10.5 5.83317 10.5C5.61216 10.5 5.4002 10.5878 5.24392 10.7441C5.08763 10.9004 4.99984 11.1123 4.99984 11.3333C4.99984 11.5543 5.08763 11.7663 5.24392 11.9226C5.4002 12.0789 5.61216 12.1667 5.83317 12.1667ZM5.83317 15.5C6.05418 15.5 6.26615 15.4122 6.42243 15.2559C6.57871 15.0996 6.6665 14.8877 6.6665 14.6667C6.6665 14.4457 6.57871 14.2337 6.42243 14.0774C6.26615 13.9211 6.05418 13.8333 5.83317 13.8333C5.61216 13.8333 5.4002 13.9211 5.24392 14.0774C5.08763 14.2337 4.99984 14.4457 4.99984 14.6667C4.99984 14.8877 5.08763 15.0996 5.24392 15.2559C5.4002 15.4122 5.61216 15.5 5.83317 15.5Z" fill="#1D2E39"/>
</svg>
