<svg width="48" height="48" viewBox="0 0 48 48" fill="none" xmlns="http://www.w3.org/2000/svg">
<path d="M5.06015 39.3L7.74015 40.42V22.36L2.88015 34.08C2.06015 36.12 3.00015 38.46 5.06015 39.3ZM44.0602 31.9L34.1401 8C33.8471 7.27509 33.3481 6.65196 32.7047 6.20764C32.0613 5.76332 31.3018 5.5173 30.5201 5.5C30.0001 5.5 29.4601 5.58 28.9401 5.8L14.2001 11.9C13.4887 12.2019 12.8788 12.7015 12.4428 13.3396C12.0068 13.9777 11.7629 14.7275 11.7401 15.5C11.7201 16 11.8201 16.58 12.0001 17.1L22.0001 41C22.5801 42.56 24.0602 43.48 25.6201 43.5C26.1402 43.5 26.6601 43.4 27.1601 43.2L41.8801 37.1C42.8586 36.6993 43.6379 35.9264 44.0467 34.9513C44.4555 33.9762 44.4604 32.8787 44.0602 31.9ZM15.7601 17.5C15.2297 17.5 14.721 17.2893 14.3459 16.9142C13.9709 16.5391 13.7601 16.0304 13.7601 15.5C13.7601 14.9696 13.9709 14.4609 14.3459 14.0858C14.721 13.7107 15.2297 13.5 15.7601 13.5C16.8601 13.5 17.7601 14.4 17.7601 15.5C17.7601 16.6 16.8601 17.5 15.7601 17.5ZM11.7601 39.5C11.7601 40.5609 12.1816 41.5783 12.9317 42.3284C13.6819 43.0786 14.6993 43.5 15.7601 43.5H18.6601L11.7601 26.82V39.5Z" fill="#61BED8"/>
</svg>
