<svg width="48" height="48" viewBox="0 0 48 48" fill="none" xmlns="http://www.w3.org/2000/svg">
<path d="M23.9998 44.4909C35.1898 44.4909 44.4906 35.2097 44.4906 24C44.4906 12.81 35.1692 3.50916 23.9792 3.50916C12.7703 3.50916 3.50977 12.81 3.50977 24C3.50977 35.2097 12.7901 44.4909 23.9998 44.4909ZM18.2149 35.2097C16.0052 35.2097 14.8806 34.0852 14.8806 31.8154V15.4209C14.8806 13.1709 16.0052 12.0266 18.2149 12.0266H23.0561V20.1223C23.0561 21.5083 23.7195 22.1512 25.1055 22.1512H33.0606V31.8137C33.0606 34.0637 31.9558 35.2089 29.7263 35.2089L18.2149 35.2097ZM25.2666 20.5243C24.8843 20.5243 24.6838 20.3237 24.6838 19.9414V12.1474C25.1252 12.2074 25.5872 12.5289 26.0895 13.0517L32.0363 19.1186C32.5592 19.6414 32.8798 20.0829 32.9406 20.5243H25.2666Z" fill="#61BED8"/>
</svg>
