<?xml version="1.0" encoding="utf-8"?>
<!-- Generator: Adobe Illustrator 24.0.3, SVG Export Plug-In . SVG Version: 6.00 Build 0)  -->
<svg version="1.1" id="Layer_1" xmlns="http://www.w3.org/2000/svg" xmlns:xlink="http://www.w3.org/1999/xlink" x="0px" y="0px"
	 viewBox="0 0 379.6 58.1" style="enable-background:new 0 0 379.6 58.1;" xml:space="preserve">
<style type="text/css">
	.st0{fill:#202632;}
	.st1{fill:#00C389;}
</style>
<g>
	<g>
		<polygon class="st0" points="57.4,55.9 69.2,55.9 69.2,33.9 88.3,33.9 88.3,24.1 69.2,24.1 69.2,12.6 91.4,12.6 91.4,2.3 
			57.4,2.3 		"/>
		<path class="st0" d="M103.3,3.5c-3.3,0-6.1,2.7-6.1,6.1c0,3.4,2.8,6.1,6.1,6.1s6.1-2.7,6.1-6.1C109.4,6.2,106.6,3.5,103.3,3.5z"/>
		<path class="st0" d="M139.2,18.6c-4.6,0-8.4,1.9-11.3,4.2l-0.1-0.1v-3.3h-11.1v36.5H128V31.4c2-1.6,4.7-3,7.6-3
			c1.6,0,2.9,0.4,3.9,1.6c0.9,1,1.3,2.4,1.3,5.1v20.9H152V33.2c0-5.3-1-8.4-3.2-10.8C146.5,20,143.1,18.6,139.2,18.6z"/>
		<path class="st0" d="M220.4,18.6c-4.6,0-8.4,1.9-11.3,4.2l-0.1-0.1v-3.3h-11.1v36.5h11.3V31.4c2-1.6,4.7-3,7.6-3
			c1.6,0,2.9,0.4,3.9,1.6c0.9,1,1.3,2.4,1.3,5.1v20.9h11.3V33.2c0-5.3-1-8.4-3.2-10.8C227.7,20,224.3,18.6,220.4,18.6z"/>
		<path class="st0" d="M186,22.1c-2.9-2.4-7.3-3.5-12.2-3.5c-5.3,0-9.8,1.3-12.7,2.8v0l2.6,8.5c2.4-1,5.1-1.7,8.1-1.7
			c2.7,0,4.6,0.6,5.6,1.6c0.8,0.7,1.4,2.1,1.4,3.9v1.4c-2-0.4-4.1-0.7-6.3-0.7c-3.8,0-7.4,0.7-10.2,2.6c-2.6,1.8-4.4,4.8-4.4,8.8
			c0,3.8,1.6,6.7,4.3,8.5c2.4,1.6,5.3,2.4,8.4,2.4c4.2,0,7.8-1.3,10.2-3h0.1c2,2.1,4.9,2.3,7.9,2.3c0.5,0,0.9,0,1.3-0.1V44.6V32.2
			C190.1,27.6,188.7,24.3,186,22.1z M178.8,46.9c-1.3,0.8-3.2,1.5-5.1,1.5c-2.6,0-4.7-1.3-4.7-3.6c0-2.8,2.9-3.7,5.8-3.7
			c1.2,0,2.8,0.1,4,0.5V46.9z"/>
		<path class="st0" d="M260.9,47.2c-6.1,0-10.3-3.9-10.3-9.5c0-5.5,4.2-9.6,10.2-9.6c2.5,0,5.1,0.7,7.6,1.9l2.7-8.9
			c-3-1.5-6.7-2.4-10.8-2.4c-11.4,0-20.9,7.6-20.9,19.1c0,11,8.6,19,20.3,19c4.2,0,8.4-0.9,11.9-2.8l-2.7-8.7
			C266.3,46.5,263.5,47.2,260.9,47.2z"/>
		<path class="st0" d="M293,18.6c-10.1,0-19.1,7.6-19.1,19.2c0,11.4,8.7,18.9,20.7,18.9c4.8,0,10.3-1.1,13.9-3.3l-2.5-8
			c-3.2,1.7-6.7,2.6-9.9,2.6c-5.2,0-9.3-2.3-10.6-7.3h24.7c0.1-1,0.2-2.6,0.2-3.9C310.4,24.6,302,18.6,293,18.6z M285.4,33.5
			c1-4.1,4-6.3,7.5-6.3c3.6,0,6.5,2.4,7.2,6.3H285.4z"/>
		<g>
			<path class="st0" d="M339.8,19.5h-5.9v9.3h5.9v13.4c0,5.8,1.3,8.8,3.2,10.9c2.3,2.4,5.8,3.6,9.5,3.6c3.2,0,6.5-0.9,8.2-2l0,0
				l-2.5-8c-1,0.3-2,0.5-3,0.5c-3.4,0-4.2-2.7-4.2-6.2V28.8h9.6v-9.3h-9.6V8l-11.3,2.3V19.5"/>
		</g>
		<path class="st1" d="M371.3,44.3c3.3,0,6.1,2.7,6.1,6.1s-2.8,6.1-6.1,6.1c-3.3,0-6.1-2.7-6.1-6.1S368,44.3,371.3,44.3z"/>
		<polygon class="st0" points="316.2,55.9 327.5,55.9 327.5,19.5 316.2,21.7 		"/>
		<polygon class="st0" points="97.7,55.9 108.9,55.9 108.9,19.5 97.7,21.7 		"/>
		<path class="st1" d="M321.9,3.5c-3.3,0-6.1,2.7-6.1,6.1c0,3.4,2.8,6.1,6.1,6.1c3.3,0,6.1-2.7,6.1-6.1C328,6.2,325.2,3.5,321.9,3.5
			z"/>
	</g>
	<g>
		<g>
			<g>
				<g>
					<g>
						<g>
							<path class="st1" d="M39.2,11.9L28.3,1.4H13L2.2,11.9v28.2l37-19.4V11.9z M20.7,18.1c-2.8,0-5.1-2.3-5.1-5.1
								c0-2.8,2.3-5.1,5.1-5.1c2.8,0,5.1,2.3,5.1,5.1C25.7,15.8,23.4,18.1,20.7,18.1z"/>
						</g>
					</g>
					<g>
						<polygon class="st1" points="2.2,49 2.2,55.9 39.2,55.9 39.2,29.6 						"/>
					</g>
				</g>
			</g>
		</g>
	</g>
</g>
</svg>
