<svg width="164" height="42" viewBox="0 0 164 42" fill="none" xmlns="http://www.w3.org/2000/svg">
<path d="M96.3359 37.9787L93.7826 33.4075H91.7813V37.9787H89.021V25.1244H95.0592C97.7506 25.1244 99.4068 26.8773 99.4068 29.2831C99.4068 31.5516 97.9576 32.7889 96.5429 33.0982L99.4758 38.0131H96.3359V37.9787ZM96.6119 29.2488C96.6119 28.1833 95.7838 27.5303 94.6797 27.5303H91.7813V31.0016H94.6797C95.7838 31.0016 96.6119 30.3486 96.6119 29.2488Z" fill="white"/>
<path d="M100.89 31.3109C100.89 27.4271 103.754 24.6432 107.653 24.6432C111.552 24.6432 114.382 27.4271 114.382 31.3109C114.382 35.1947 111.518 37.9787 107.653 37.9787C103.72 37.9787 100.89 35.1947 100.89 31.3109ZM111.552 31.3109C111.552 28.9051 110.034 27.0834 107.653 27.0834C105.238 27.0834 103.72 28.9051 103.72 31.3109C103.72 33.7168 105.238 35.5384 107.653 35.5384C110.034 35.5728 111.552 33.7168 111.552 31.3109Z" fill="white"/>
<path d="M115.727 31.3109C115.727 27.4271 118.591 24.6432 122.49 24.6432C126.389 24.6432 129.218 27.4271 129.218 31.3109C129.218 35.1947 126.355 37.9787 122.49 37.9787C118.557 37.9787 115.727 35.1947 115.727 31.3109ZM126.389 31.3109C126.389 28.9051 124.871 27.0834 122.49 27.0834C120.075 27.0834 118.557 28.9051 118.557 31.3109C118.557 33.7168 120.075 35.5384 122.49 35.5384C124.871 35.5728 126.389 33.7168 126.389 31.3109Z" fill="white"/>
<path d="M131.151 37.9787V25.1244H140.294V27.5303H133.911V30.2455H140.191V32.6514H133.946V38.0131H131.151V37.9787Z" fill="white"/>
<path d="M142.227 37.9787V25.1244H151.37V27.5303H144.987V30.2455H151.232V32.6514H144.987V35.5728H151.37V37.9787H142.227Z" fill="white"/>
<path d="M160.824 37.9787L158.271 33.4075H156.27V37.9787H153.509V25.1244H159.548C162.239 25.1244 163.895 26.8773 163.895 29.2831C163.895 31.5516 162.446 32.7889 161.031 33.0982L163.964 38.0131H160.824V37.9787ZM161.1 29.2488C161.1 28.1833 160.272 27.5303 159.168 27.5303H156.27V31.0016H159.168C160.272 31.0016 161.1 30.3486 161.1 29.2488Z" fill="white"/>
<mask id="mask0_102_1979" style="mask-type:luminance" maskUnits="userSpaceOnUse" x="0" y="0" width="42" height="42">
<mask id="mask1_102_1979" style="mask-type:luminance" maskUnits="userSpaceOnUse" x="0" y="0" width="42" height="42">
<path d="M20.8751 41.5876C32.4041 41.5876 41.7502 32.2779 41.7502 20.7938C41.7502 9.30969 32.4041 0 20.8751 0C9.34609 0 0 9.30969 0 20.7938C0 32.2779 9.34609 41.5876 20.8751 41.5876Z" fill="white"/>
</mask>
<g mask="url(#mask1_102_1979)">
<path d="M20.8751 0C9.35065 0 0 9.31424 0 20.7938C0 32.2733 9.35065 41.5876 20.8751 41.5876C32.3995 41.5876 41.7502 32.2733 41.7502 20.7938C41.7502 9.31424 32.3995 0 20.8751 0Z" fill="white"/>
</g>
</mask>
<g mask="url(#mask0_102_1979)">
<path d="M20.8406 41.5876C32.3696 41.5876 41.7156 32.2779 41.7156 20.7938C41.7156 9.30969 32.3696 0 20.8406 0C9.31158 0 -0.0345078 9.30969 -0.0345078 20.7938C-0.0345078 32.2779 9.31158 41.5876 20.8406 41.5876Z" fill="#61BED8"/>
<path d="M20.8406 0C9.31615 0 -0.0345078 9.31424 -0.0345078 20.7938C-0.0345078 32.2733 9.31615 41.5876 20.8406 41.5876C32.365 41.5876 41.7156 32.2733 41.7156 20.7938C41.7156 9.31424 32.365 0 20.8406 0Z" fill="#61BED8"/>
<path d="M42.1642 24.3339L20.8061 2.1997L-0.207026 24.3339L-1.96674 22.6498L19.909 -0.412415H21.7032L43.9239 22.6498L42.1642 24.3339Z" fill="#314971"/>
<path d="M13.7327 38.0819L6.4868 37.9788V14.9166H14.0087L28.7075 35.5041L32.779 35.5385V17.3568L28.2245 17.2881L28.259 14.8478L35.1943 14.9509V38.0131L27.4309 37.91L12.7666 17.3568H8.9366V35.5729L13.7672 35.6416L13.7327 38.0819Z" fill="#314971"/>
</g>
<path d="M63.0738 37.635L54.2752 25.6743V37.635H50.3417V19.3159H54.3787L62.9013 30.8298V19.3159H66.8347V37.6694H63.0738V37.635Z" fill="white"/>
<path d="M69.2155 34.7136L71.3548 31.6547C72.666 32.9951 74.6672 34.1637 77.2205 34.1637C79.3943 34.1637 80.4294 33.2013 80.4294 32.1358C80.4294 28.9394 69.8366 31.1735 69.8366 24.2651C69.8366 21.2062 72.4935 18.6972 76.8065 18.6972C79.7393 18.6972 82.1546 19.5908 83.9834 21.2406L81.8096 24.162C80.3259 22.7872 78.3247 22.1686 76.4614 22.1686C74.8052 22.1686 73.8736 22.8903 73.8736 23.9902C73.8736 26.8772 84.4319 24.9182 84.4319 31.7578C84.4319 35.126 82.0166 37.635 77.048 37.635C73.4941 37.635 70.9408 36.4664 69.2155 34.7136Z" fill="white"/>
</svg>
