<svg width="48" height="48" viewBox="0 0 48 48" fill="none" xmlns="http://www.w3.org/2000/svg">
<path d="M15 5.434L4 11.852V43L15 38.466V5.434ZM19 37.82L22.5 39.886V36C22.4996 33.6791 23.0975 31.3972 24.2361 29.3747C25.3747 27.3522 27.0154 25.6575 29 24.454V10.182L19 4.276V37.82ZM44 5V25.124C42.4373 23.9771 40.6465 23.1792 38.7487 22.7841C36.851 22.3891 34.8906 22.4061 33 22.834V9.534L44 5ZM38 28.252V25.5H34V28.252C32.5921 28.6164 31.3102 29.3576 30.292 30.396L27.906 29.018L25.906 32.482L28.29 33.858C27.9005 35.2594 27.9005 36.7406 28.29 38.142L25.906 39.518L27.906 42.982L30.292 41.604C31.3102 42.6424 32.5921 43.3836 34 43.748V46.5H38V43.748C39.4079 43.3836 40.6898 42.6424 41.708 41.604L44.092 42.982L46.092 39.518L43.71 38.142C44.0995 36.7406 44.0995 35.2594 43.71 33.858L46.092 32.482L44.092 29.018L41.708 30.394C40.6894 29.357 39.4075 28.6152 38 28.252ZM32.57 33.942C32.9254 33.3497 33.4281 32.8595 34.0292 32.5191C34.6303 32.1788 35.3092 31.9999 36 31.9999C36.6908 31.9999 37.3697 32.1788 37.9708 32.5191C38.5719 32.8595 39.0746 33.3497 39.43 33.942L39.502 34.068C39.82 34.642 40 35.3 40 36.002C40 36.702 39.82 37.362 39.502 37.936L39.428 38.062C39.0725 38.6539 38.5699 39.1436 37.969 39.4837C37.3681 39.8237 36.6894 40.0024 35.999 40.0024C35.3086 40.0024 34.6299 39.8237 34.029 39.4837C33.4281 39.1436 32.9255 38.6539 32.57 38.062L32.496 37.936C32.1695 37.343 31.9989 36.6769 32 36C31.9992 35.3238 32.1698 34.6584 32.496 34.066L32.57 33.942Z" fill="#61BED8"/>
</svg>
