<svg width="48" height="48" viewBox="0 0 48 48" fill="none" xmlns="http://www.w3.org/2000/svg">
<path d="M4 40L16 24L4 8H30C30.6333 8 31.2333 8.142 31.8 8.426C32.3667 8.71 32.8333 9.10133 33.2 9.6L44 24L43.75 24.35C42.5833 23.5833 41.35 23 40.05 22.6C38.75 22.2 37.4 22 36 22C32.1 22 28.792 23.3587 26.076 26.076C23.36 28.7933 22.0013 32.0847 22 35.95C22 36.6167 22.05 37.292 22.15 37.976C22.25 38.66 22.4 39.3347 22.6 40H4ZM36 46C33.2333 46 30.8753 45.0247 28.926 43.074C26.9767 41.1233 26.0013 38.7653 26 36C25.9987 33.2347 26.974 30.8767 28.926 28.926C30.878 26.9753 33.236 26 36 26C38.764 26 41.1227 26.9753 43.076 28.926C45.0293 30.8767 46.004 33.2347 46 36C45.996 38.7653 45.0207 41.124 43.074 43.076C41.1273 45.028 38.7693 46.0027 36 46ZM34.55 40.5L41.5 33.6L39.4 31.5L34.55 36.25L32.6 34.3L30.5 36.45L34.55 40.5Z" fill="#61BED8"/>
</svg>
