<svg width="48" height="48" viewBox="0 0 48 48" fill="none" xmlns="http://www.w3.org/2000/svg">
<path d="M10.641 0V7.52076H14.5907V0H10.641ZM33.4093 0V7.52076H37.3531V0H33.4093ZM2.56934 3.61472V14.1438H45.4307V3.61472H40.177V10.3408H30.5854V3.61472H17.4087V10.3408H7.82298V3.61472H2.56934ZM2.56934 16.9083V48H45.4307V16.9083L2.56934 16.9083ZM19.4063 24.0922C21.5881 24.1136 23.6528 25.1619 24.4737 27.1124C24.8597 28.2775 25.0653 29.5195 24.5846 30.6042C23.9829 31.8555 22.7631 32.507 21.5664 32.9268C23.8124 33.5128 25.2905 34.9252 25.304 37.2193C25.2678 38.7928 24.5313 40.1866 23.4193 41.0976C22.237 42.0323 20.8073 42.5545 19.4063 42.5641C15.4553 42.5641 13.4789 40.7827 13.4789 37.2193H16.9668C17.0409 38.7195 17.7503 39.8606 19.2101 39.8808C21.066 39.7543 21.8008 38.5349 21.8161 36.9735C21.8153 36.0304 21.471 35.064 20.6509 34.7005C19.5929 34.2608 18.4118 34.3131 17.3809 34.312V31.599C19.066 31.6342 21.3808 31.3369 21.398 29.328C21.3325 27.8503 20.7277 26.796 19.2933 26.7774C17.7655 26.8696 16.9271 27.7381 16.9113 29.1099H13.4789C13.5534 25.651 16.3948 24.1076 19.4063 24.0922ZM31.4455 24.4271H34.5192V42.2351H31.1938V27.915C29.9198 29.0043 28.5097 29.78 26.9588 30.2415V27.1956C28.7681 26.494 30.2638 25.5718 31.4455 24.4271Z" fill="#61BED8"/>
</svg>
