<svg width="48" height="48" viewBox="0 0 48 48" fill="none" xmlns="http://www.w3.org/2000/svg">
<path d="M38.4773 29.0117L30.9605 25.4261L27.7819 23.9098C29.1701 23.0352 30.2976 21.6854 31.0353 20.0597C31.6513 18.7045 31.9697 17.2331 31.9689 15.7445C31.9689 14.8675 31.8297 14.0347 31.6358 13.2312C30.6902 9.33744 27.6494 6.46896 23.999 6.46896C20.4177 6.46896 17.423 9.2352 16.4189 13.0181C16.187 13.8859 16.0277 14.7883 16.0277 15.7445C16.0277 17.4048 16.4155 18.9528 17.0745 20.2992C17.8363 21.8611 18.9657 23.149 20.3405 23.977L17.2963 25.3944L9.53566 29.0088C8.86174 29.3246 8.4187 30.085 8.4187 30.9341V39.4613C8.4187 40.6042 9.21502 41.5306 10.1981 41.5306H21.7243V35.0016C21.7264 34.9343 21.7461 34.8688 21.7814 34.8115L21.7766 34.8086L23.6645 31.5389L23.6693 31.5418C23.7365 31.4266 23.856 31.345 23.999 31.345C24.1421 31.345 24.2616 31.4261 24.3288 31.5418L24.3307 31.5403L24.348 31.5706L24.3557 31.584L26.2185 34.8101L26.2161 34.8115C26.2516 34.8689 26.2713 34.9346 26.2733 35.0021V41.531H37.7995C38.7825 41.531 39.5793 40.6046 39.5793 39.4618V30.9341C39.5808 30.0878 39.1449 29.3347 38.4773 29.0117ZM26.2176 26.8253L26.2224 26.8282L24.3341 30.0979L24.3293 30.095C24.2963 30.1538 24.2485 30.2029 24.1907 30.2374C24.1328 30.2718 24.0669 30.2904 23.9995 30.2914C23.9321 30.2904 23.8662 30.2718 23.8083 30.2374C23.7505 30.2029 23.7027 30.1538 23.6697 30.095L23.6673 30.0965L23.6481 30.0634L23.6424 30.0538L21.7795 26.8267L21.7814 26.8253C21.746 26.7679 21.7263 26.7022 21.7243 26.6347C21.7243 26.4211 21.8976 26.2478 22.1112 26.2478H25.8869C26.1005 26.2478 26.2737 26.4211 26.2737 26.6347C26.273 26.7022 26.2536 26.7682 26.2176 26.8253Z" fill="#61BED8"/>
</svg>
