<svg width="48" height="48" viewBox="0 0 48 48" fill="none" xmlns="http://www.w3.org/2000/svg">
<path d="M6.00001 19.5C6.00001 19.1022 6.15804 18.7206 6.43935 18.4393C6.72065 18.158 7.10218 18 7.50001 18H10.5C10.8978 18 11.2794 18.158 11.5607 18.4393C11.842 18.7206 12 19.1022 12 19.5C12 19.8978 11.842 20.2794 11.5607 20.5607C11.2794 20.842 10.8978 21 10.5 21H7.50001C7.10218 21 6.72065 20.842 6.43935 20.5607C6.15804 20.2794 6.00001 19.8978 6.00001 19.5ZM13.3931 11.0156C13.6746 11.2971 14.0563 11.4552 14.4544 11.4552C14.8524 11.4552 15.2342 11.2971 15.5156 11.0156C15.7971 10.7342 15.9552 10.3524 15.9552 9.95438C15.9552 9.55633 15.7971 9.17459 15.5156 8.89313L13.3931 6.7725C13.1095 6.50307 12.7319 6.35508 12.3408 6.36009C11.9496 6.3651 11.5759 6.52271 11.2993 6.79931C11.0227 7.07591 10.8651 7.44962 10.8601 7.84076C10.8551 8.23191 11.0031 8.60953 11.2725 8.89313L13.3931 11.0156ZM24 7.5C24.3978 7.5 24.7794 7.34196 25.0607 7.06066C25.342 6.77936 25.5 6.39782 25.5 6V3C25.5 2.60218 25.342 2.22064 25.0607 1.93934C24.7794 1.65804 24.3978 1.5 24 1.5C23.6022 1.5 23.2206 1.65804 22.9393 1.93934C22.658 2.22064 22.5 2.60218 22.5 3V6C22.5 6.39782 22.658 6.77936 22.9393 7.06066C23.2206 7.34196 23.6022 7.5 24 7.5ZM33.5456 11.4544C33.7427 11.4545 33.9378 11.4159 34.1199 11.3406C34.302 11.2653 34.4675 11.1549 34.6069 11.0156L36.7275 8.89313C36.9969 8.60953 37.1449 8.23191 37.1399 7.84076C37.1349 7.44962 36.9773 7.07591 36.7007 6.79931C36.4241 6.52271 36.0504 6.3651 35.6592 6.36009C35.2681 6.35508 34.8905 6.50307 34.6069 6.7725L32.4844 8.89313C32.2744 9.10291 32.1313 9.37029 32.0733 9.66142C32.0154 9.95254 32.0451 10.2543 32.1587 10.5286C32.2723 10.8028 32.4648 11.0371 32.7117 11.202C32.9585 11.3668 33.2488 11.4546 33.5456 11.4544ZM36 19.5C36 19.8978 36.158 20.2794 36.4393 20.5607C36.7206 20.842 37.1022 21 37.5 21H40.5C40.8978 21 41.2794 20.842 41.5607 20.5607C41.842 20.2794 42 19.8978 42 19.5C42 19.1022 41.842 18.7206 41.5607 18.4393C41.2794 18.158 40.8978 18 40.5 18H37.5C37.1022 18 36.7206 18.158 36.4393 18.4393C36.158 18.7206 36 19.1022 36 19.5ZM16.5 21C16.8978 21 17.2794 20.842 17.5607 20.5607C17.842 20.2794 18 19.8978 18 19.5C18 17.9087 18.6321 16.3826 19.7574 15.2574C20.8826 14.1321 22.4087 13.5 24 13.5C25.5913 13.5 27.1174 14.1321 28.2426 15.2574C29.3679 16.3826 30 17.9087 30 19.5C30 19.8978 30.158 20.2794 30.4393 20.5607C30.7206 20.842 31.1022 21 31.5 21C31.8978 21 32.2794 20.842 32.5607 20.5607C32.842 20.2794 33 19.8978 33 19.5C33 17.1131 32.0518 14.8239 30.364 13.136C28.6761 11.4482 26.387 10.5 24 10.5C21.6131 10.5 19.3239 11.4482 17.636 13.136C15.9482 14.8239 15 17.1131 15 19.5C15 19.8978 15.158 20.2794 15.4393 20.5607C15.7206 20.842 16.1022 21 16.5 21ZM26.85 25.5H21.15C20.9787 25.4999 20.8126 25.5585 20.6792 25.666C20.5459 25.7734 20.4533 25.9233 20.4169 26.0906L19.2413 31.5H28.7588L27.5831 26.0906C27.5467 25.9233 27.4542 25.7734 27.3208 25.666C27.1874 25.5585 27.0213 25.4999 26.85 25.5ZM5.95313 34.875L3.18751 39.7612C3.02915 40.0409 2.96482 40.3641 3.00397 40.6831C3.04313 41.0021 3.18371 41.3001 3.40501 41.5331C3.55097 41.6833 3.72601 41.8021 3.91943 41.8824C4.11285 41.9627 4.32061 42.0027 4.53001 42H13.2844C13.4557 42.0001 13.6218 41.9415 13.7552 41.834C13.8885 41.7266 13.9811 41.5767 14.0175 41.4094L15.5175 34.5H6.60563C6.47347 34.4995 6.34352 34.5339 6.22894 34.5997C6.11436 34.6656 6.01921 34.7605 5.95313 34.875ZM44.805 39.75L42.0469 34.875C41.9808 34.7605 41.8857 34.6656 41.7711 34.5997C41.6565 34.5339 41.5265 34.4995 41.3944 34.5H32.4806L33.9806 41.4094C34.017 41.5767 34.1096 41.7266 34.243 41.834C34.3764 41.9415 34.5425 42.0001 34.7138 42H43.455C43.6644 42.0027 43.8722 41.9627 44.0656 41.8824C44.259 41.8021 44.434 41.6833 44.58 41.5331C44.8037 41.3018 44.9471 41.0047 44.9889 40.6856C45.0308 40.3665 44.9689 40.0425 44.8125 39.7612L44.805 39.75ZM39.5044 30.375L37.1756 26.25C37.0443 26.0179 36.8534 25.825 36.6227 25.6912C36.392 25.5574 36.1298 25.4875 35.8631 25.4888H31.455C31.343 25.4887 31.2323 25.5138 31.1312 25.5621C31.0302 25.6104 30.9412 25.6808 30.8709 25.768C30.8005 25.8553 30.7507 25.9571 30.7249 26.0662C30.6991 26.1752 30.6981 26.2886 30.7219 26.3981L31.8281 31.4888H38.85C38.9804 31.4885 39.1085 31.4542 39.2217 31.3893C39.3348 31.3244 39.4291 31.2311 39.4951 31.1187C39.5612 31.0062 39.5968 30.8785 39.5984 30.7481C39.6001 30.6176 39.5676 30.4891 39.5044 30.375ZM16.545 25.5H12.1313C11.8646 25.4988 11.6024 25.5686 11.3717 25.7024C11.141 25.8362 10.9501 26.0291 10.8188 26.2612L8.49563 30.375C8.4296 30.4894 8.39493 30.6192 8.39514 30.7512C8.39535 30.8833 8.43043 31.013 8.49684 31.1271C8.56324 31.2413 8.65861 31.3359 8.7733 31.4013C8.88799 31.4668 9.01794 31.5009 9.15001 31.5H16.1719L17.2781 26.4094C17.3019 26.2999 17.3009 26.1865 17.2751 26.0774C17.2494 25.9684 17.1995 25.8665 17.1291 25.7793C17.0588 25.6921 16.9699 25.6217 16.8688 25.5734C16.7677 25.525 16.657 25.5 16.545 25.5ZM29.4113 34.5H18.5888L17.1563 41.0906C17.1324 41.2001 17.1335 41.3135 17.1593 41.4226C17.185 41.5316 17.2349 41.6335 17.3052 41.7207C17.3756 41.8079 17.4645 41.8783 17.5656 41.9266C17.6667 41.975 17.7773 42 17.8894 42H30.1106C30.2227 42 30.3333 41.975 30.4344 41.9266C30.5355 41.8783 30.6244 41.8079 30.6948 41.7207C30.7651 41.6335 30.815 41.5316 30.8408 41.4226C30.8665 41.3135 30.8676 41.2001 30.8438 41.0906L29.4113 34.5Z" fill="#61BED8"/>
</svg>
