<svg width="48" height="48" viewBox="0 0 48 48" fill="none" xmlns="http://www.w3.org/2000/svg">
<path d="M32 4H8C7.46957 4 6.96086 4.21071 6.58579 4.58579C6.21071 4.96086 6 5.46957 6 6V42C6 42.5304 6.21071 43.0391 6.58579 43.4142C6.96086 43.7893 7.46957 44 8 44H24.51C22.7446 41.467 21.8661 38.4214 22.0112 35.3372C22.1562 32.2531 23.3168 29.3034 25.3122 26.9473C27.3076 24.5911 30.0259 22.9607 33.044 22.3098C36.0621 21.6588 39.2108 22.0238 42 23.348V14L32 4ZM27.572 30.654C27.65 29.2 28.772 28.016 30.22 27.862L31.96 27.678C32.1673 27.6555 32.3624 27.5688 32.518 27.43L33.82 26.26C34.344 25.7878 35.0194 25.5183 35.7245 25.4999C36.4297 25.4816 37.1182 25.7157 37.666 26.16L39.03 27.26C39.19 27.39 39.39 27.466 39.598 27.478L41.346 27.572C42.8 27.65 43.984 28.772 44.138 30.22L44.322 31.96C44.3445 32.1673 44.4312 32.3624 44.57 32.518L45.74 33.82C46.714 34.904 46.756 36.534 45.84 37.666L44.74 39.03C44.6101 39.1921 44.5339 39.3906 44.522 39.598L44.428 41.346C44.3918 42.0506 44.1051 42.7191 43.6196 43.231C43.1341 43.7429 42.4817 44.0646 41.78 44.138L40.04 44.322C39.8327 44.3445 39.6376 44.4312 39.482 44.57L38.18 45.74C37.656 46.2122 36.9806 46.4817 36.2755 46.5001C35.5703 46.5184 34.8818 46.2843 34.334 45.84L32.97 44.74C32.8079 44.6101 32.6094 44.5339 32.402 44.522L30.654 44.428C29.9494 44.3918 29.2809 44.1051 28.769 43.6196C28.2571 43.1341 27.9354 42.4817 27.862 41.78L27.678 40.04C27.6555 39.8327 27.5688 39.6376 27.43 39.482L26.26 38.18C25.7878 37.656 25.5183 36.9806 25.4999 36.2755C25.4816 35.5703 25.7157 34.8818 26.16 34.334L27.26 32.97C27.3899 32.8079 27.4661 32.6094 27.478 32.402L27.572 30.654ZM42.06 34.06L39.94 31.94L35 36.88L32.06 33.94L29.94 36.06L33.94 40.06L35 41.12L36.06 40.06L42.06 34.06Z" fill="#61BED8"/>
</svg>
