<svg width="48" height="48" viewBox="0 0 48 48" fill="none" xmlns="http://www.w3.org/2000/svg">
<g clip-path="url(#clip0_10_317)">
<path d="M26.5874 0C27.2929 0 27.9242 0.4392 28.1618 1.0968L29.8561 5.7936C30.4625 5.944 30.9858 6.0976 31.4257 6.2544C31.9058 6.4256 32.5298 6.6896 33.2977 7.0464L37.2434 4.9584C37.5652 4.78699 37.9341 4.72497 38.2943 4.78168C38.6545 4.8384 38.9865 5.01078 39.2402 5.2728L42.7106 8.8608C43.1714 9.3384 43.301 10.0368 43.0418 10.6464L41.1914 14.9832C41.497 15.5464 41.7434 16.0296 41.9306 16.4328C42.1322 16.8696 42.3818 17.4776 42.6794 18.2568L46.9922 20.1048C47.6402 20.3808 48.041 21.0288 47.9978 21.7224L47.681 26.7024C47.6593 27.0259 47.5431 27.336 47.3469 27.5941C47.1506 27.8522 46.8829 28.047 46.577 28.1544L42.4922 29.6064C42.3754 30.1696 42.2522 30.6544 42.1226 31.0608C41.9128 31.6907 41.6742 32.3105 41.4074 32.9184L43.4594 37.4544C43.6053 37.7729 43.645 38.1299 43.5723 38.4726C43.4997 38.8154 43.3187 39.1257 43.0562 39.3576L39.1538 42.8424C38.8973 43.0719 38.5765 43.217 38.2348 43.2582C37.8931 43.2994 37.547 43.2347 37.2434 43.0728L33.221 40.9416C32.5923 41.2761 31.943 41.5703 31.2769 41.8224L29.5202 42.48L27.9601 46.8C27.8434 47.1156 27.6346 47.3889 27.3607 47.5845C27.0869 47.78 26.7606 47.8889 26.4242 47.8968L21.8641 48C21.5187 48.008 21.1791 47.9093 20.8918 47.7173C20.6045 47.5254 20.3834 47.2494 20.2585 46.9272L18.4202 42.0624C17.7931 41.8476 17.172 41.6155 16.5578 41.3664C16.0555 41.149 15.5608 40.9144 15.0746 40.6632L10.5146 42.612C10.2142 42.7408 9.88281 42.7792 9.56097 42.7225C9.23913 42.6658 8.9408 42.5165 8.70255 42.2928L5.32815 39.1272C5.07598 38.8932 4.90423 38.5854 4.83742 38.2479C4.77061 37.9104 4.81217 37.5605 4.95615 37.248L6.91695 32.976C6.6571 32.4696 6.41534 31.954 6.19215 31.4304C5.93217 30.7892 5.69205 30.1401 5.47215 29.484L1.17615 28.176C0.826951 28.0705 0.522376 27.8526 0.309725 27.5562C0.0970739 27.2597 -0.0117515 26.9014 0.000149504 26.5368L0.16815 21.9264C0.18063 21.6257 0.27481 21.3341 0.440569 21.0829C0.606328 20.8318 0.837399 20.6305 1.10895 20.5008L5.61615 18.336C5.82415 17.5712 6.00815 16.9728 6.16815 16.5408C6.3946 15.9606 6.64603 15.3905 6.92175 14.832L4.96815 10.704C4.81877 10.3908 4.77313 10.038 4.83787 9.69709C4.90261 9.35613 5.07435 9.04469 5.32815 8.808L8.69775 5.6256C8.93365 5.40229 9.22922 5.25215 9.54869 5.19337C9.86816 5.13459 10.1978 5.16968 10.4978 5.2944L15.0529 7.176C15.5554 6.8416 16.013 6.5664 16.4258 6.3504C16.917 6.0912 17.5762 5.8144 18.4034 5.52L19.9874 1.1016C20.1056 0.77902 20.32 0.500466 20.6015 0.303491C20.883 0.106516 21.2182 0.000591863 21.5618 0L26.5874 0ZM24.0578 16.8456C20.0569 16.8456 16.8146 20.0496 16.8146 24.0048C16.8146 27.96 20.0569 31.1664 24.0578 31.1664C28.0585 31.1664 31.2986 27.96 31.2986 24.0048C31.2986 20.0496 28.0585 16.8456 24.0578 16.8456Z" fill="#61BED8"/>
</g>
<defs>
<clipPath id="clip0_10_317">
<rect width="48" height="48" fill="white"/>
</clipPath>
</defs>
</svg>
